<svg width="427" height="82" fill="none" xmlns="http://www.w3.org/2000/svg"><path d="M2.792 67.324c1.623-.225 2.772-.473 3.448-.744.676-.27 1.104-.653 1.285-1.149.225-.54.338-1.374.338-2.501V21.017c0-1.081-.113-1.825-.338-2.23-.18-.406-.564-.676-1.15-.811-.54-.18-1.735-.406-3.583-.677v-.675h8.18L29.9 64.214l18.185-47.59h7.368v.675c-.36.046-1.171.158-2.433.338-1.262.18-2.028.519-2.299 1.014-.225.451-.338 1.24-.338 2.366V62.93c0 1.127.113 1.96.338 2.501.226.496.676.879 1.352 1.15.676.27 1.803.518 3.38.743V68H42.271v-.676c1.623-.225 2.772-.473 3.448-.744.676-.27 1.104-.653 1.284-1.149.226-.54.338-1.374.338-2.501V24.6L30.238 68H28.21L10.972 25.547V62.93c0 1.127.09 1.96.27 2.501.226.496.677.879 1.353 1.15.676.27 1.802.518 3.38.743V68H2.793v-.676zm79.348 1.42c-4.19 0-8.09-1.127-11.695-3.38-3.605-2.299-6.467-5.454-8.585-9.465-2.118-4.01-3.177-8.495-3.177-13.452 0-5.138 1.15-9.712 3.448-13.723 2.298-4.011 5.317-7.12 9.058-9.329 3.786-2.208 7.842-3.312 12.168-3.312 4.282 0 8.248 1.104 11.898 3.312 3.695 2.208 6.647 5.273 8.856 9.194 2.208 3.876 3.312 8.225 3.312 13.047 0 5.047-1.194 9.644-3.583 13.79-2.343 4.146-5.475 7.414-9.396 9.802-3.876 2.344-7.977 3.516-12.304 3.516zm1.488-2.502c3.064 0 6.129-.72 9.193-2.163 3.11-1.487 5.724-3.92 7.842-7.3 2.163-3.38 3.245-7.797 3.245-13.25 0-5.273-1.037-9.78-3.11-13.52-2.073-3.786-4.777-6.625-8.112-8.518-3.29-1.938-6.805-2.907-10.546-2.907-3.11 0-6.219.676-9.329 2.028-3.11 1.352-5.746 3.628-7.909 6.828-2.118 3.2-3.177 7.436-3.177 12.708 0 5.363 1.127 10.028 3.38 13.994 2.253 3.92 5.07 6.918 8.45 8.99 3.38 2.074 6.738 3.11 10.073 3.11zm52.099 2.502c-4.282 0-8.27-1.037-11.966-3.11-3.65-2.073-6.58-5.047-8.788-8.923-2.163-3.921-3.245-8.518-3.245-13.79 0-5.093 1.127-9.668 3.38-13.724 2.299-4.1 5.431-7.3 9.397-9.6 4.011-2.343 8.472-3.514 13.385-3.514 2.929 0 5.543.383 7.841 1.149 2.344.766 4.214 1.622 5.611 2.569 1.397.946 2.231 1.645 2.502 2.095v15.008h-.338c0-4.327-.767-7.842-2.299-10.546-1.532-2.75-3.538-4.732-6.016-5.949-2.434-1.217-5.138-1.825-8.112-1.825-2.93 0-6.084.586-9.465 1.758-3.334 1.126-6.309 3.357-8.923 6.692-2.614 3.29-3.921 7.887-3.921 13.79.136 5.95 1.352 10.84 3.651 14.67 2.343 3.785 5.228 6.535 8.653 8.247 3.425 1.668 6.94 2.501 10.545 2.501 5.093 0 9.577-1.622 13.453-4.867 3.921-3.245 6.828-7.819 8.72-13.723h.338c-1.757 6.31-4.777 11.402-9.058 15.278-4.236 3.876-9.352 5.814-15.345 5.814zm25.079-1.42c1.578-.225 2.704-.45 3.38-.676.722-.27 1.172-.608 1.352-1.014.226-.45.338-1.127.338-2.028V21.693c0-1.126-.112-1.937-.338-2.433-.18-.54-.608-.947-1.284-1.217-.676-.27-1.825-.518-3.448-.744v-.675h13.183v.675c-1.578.226-2.704.474-3.38.744-.677.27-1.127.676-1.353 1.217-.225.496-.338 1.307-.338 2.433v18.861l15.278-19.13c.992-1.173 1.487-2.051 1.487-2.637 0-.451-.292-.766-.878-.947-.586-.225-1.578-.405-2.975-.54v-.677h13.182v.676c-1.938.18-3.628.541-5.07 1.082-1.397.496-2.501 1.262-3.312 2.299l-16.224 20.685 18.117 22.511c1.532 1.893 4.304 3.042 8.315 3.448V68h-13.183v-.676c.902-.135 1.555-.293 1.961-.473.405-.18.608-.406.608-.676 0-.406-.45-1.172-1.352-2.299L168.918 44.07v19.537c0 .901.113 1.577.338 2.028.226.406.676.744 1.353 1.014.676.225 1.802.45 3.38.676V68h-13.183v-.676zm36.41 0c1.622-.225 2.771-.473 3.447-.744.676-.27 1.104-.653 1.285-1.149.225-.54.338-1.374.338-2.501V21.153c0-.856-.113-1.51-.338-1.96-.226-.496-.699-.88-1.42-1.15-.721-.315-1.825-.563-3.312-.744v-.675h18.522c3.561 0 6.648.54 9.262 1.622 2.613 1.037 4.596 2.524 5.948 4.462 1.398 1.937 2.096 4.19 2.096 6.76 0 3.2-.991 5.88-2.974 8.044-1.983 2.163-4.439 3.673-7.369 4.53 3.876.675 6.986 2.05 9.329 4.123 2.344 2.073 3.515 4.89 3.515 8.45 0 2.389-.586 4.597-1.757 6.625-1.127 2.028-2.885 3.673-5.273 4.935-2.389 1.217-5.363 1.825-8.923 1.825h-22.376v-.676zm18.793-25.688c3.966 0 7.233-1.014 9.802-3.042 2.569-2.073 3.853-5.138 3.853-9.194 0-3.695-1.172-6.512-3.515-8.45-2.344-1.983-5.904-2.974-10.681-2.974h-8.045c-.811 0-1.374.225-1.69.675-.27.451-.405 1.285-.405 2.502v20.483h10.681zm3.245 25.282c4.687 0 7.976-1.307 9.869-3.92 1.893-2.614 2.839-5.521 2.839-8.72 0-3.832-1.261-6.67-3.785-8.519-2.524-1.847-5.904-2.771-10.14-2.771h-12.709V62.93c0 1.127.135 1.96.405 2.501.271.541.744.924 1.42 1.15.721.225 1.803.337 3.245.337h8.856zM283.325 17.3c-1.578.226-2.704.474-3.38.744-.676.27-1.127.676-1.352 1.217-.226.496-.338 1.307-.338 2.433v41.913c0 .901.112 1.577.338 2.028.225.406.676.744 1.352 1.014.676.225 1.802.45 3.38.676V68h-13.182v-.676c1.577-.225 2.704-.45 3.38-.676.721-.27 1.171-.608 1.352-1.014.225-.45.338-1.127.338-2.028V26.764L246.82 61.307v2.299c0 .901.113 1.577.338 2.028.226.406.676.744 1.352 1.014.676.225 1.803.45 3.38.676V68h-13.182v-.676c1.578-.225 2.704-.45 3.38-.676.721-.27 1.172-.608 1.352-1.014.226-.45.338-1.127.338-2.028V21.693c0-1.126-.112-1.937-.338-2.433-.18-.54-.608-.947-1.284-1.217-.676-.27-1.825-.518-3.448-.744v-.675h13.182v.675c-1.577.226-2.704.474-3.38.744-.676.27-1.126.676-1.352 1.217-.225.496-.338 1.307-.338 2.433v36.708l28.393-34.544v-2.163c0-1.127-.113-1.938-.338-2.434-.181-.54-.609-.947-1.285-1.217-.676-.27-1.825-.518-3.447-.744v-.675h13.182v.675zm42.881 0c-1.578.226-2.704.474-3.38.744-.676.27-1.127.676-1.352 1.217-.226.496-.338 1.307-.338 2.433v41.913c0 .901.112 1.577.338 2.028.225.406.676.744 1.352 1.014.676.225 1.802.45 3.38.676V68h-13.182v-.676c1.577-.225 2.704-.45 3.38-.676.721-.27 1.171-.608 1.352-1.014.225-.45.338-1.127.338-2.028V42.717c-1.307.676-3.268 1.397-5.882 2.164-2.568.766-5.318 1.149-8.247 1.149-4.867 0-8.405-.947-10.613-2.84-2.209-1.937-3.313-5.002-3.313-9.193V21.694c0-1.127-.112-1.938-.338-2.434-.18-.54-.608-.947-1.284-1.217-.676-.27-1.825-.518-3.448-.744v-.675h13.182v.675c-1.577.226-2.704.474-3.38.744-.676.27-1.126.676-1.352 1.217-.225.496-.338 1.307-.338 2.433v12.304c0 3.515.857 6.061 2.569 7.639 1.758 1.577 4.529 2.366 8.315 2.366 2.929 0 5.633-.293 8.112-.879 2.479-.586 4.484-1.172 6.017-1.758V21.693c0-1.126-.113-1.937-.338-2.433-.181-.54-.609-.947-1.285-1.217-.676-.27-1.825-.518-3.447-.744v-.675h13.182v.675zm3.805 50.025c1.578-.225 2.704-.45 3.38-.676.721-.27 1.172-.608 1.352-1.014.226-.45.338-1.127.338-2.028V21.693c0-1.126-.112-1.937-.338-2.433-.18-.54-.608-.947-1.284-1.217-.676-.27-1.825-.518-3.448-.744v-.675h13.183v.675c-1.578.226-2.705.474-3.381.744-.676.27-1.126.676-1.352 1.217-.225.496-.338 1.307-.338 2.433v18.861l15.278-19.13c.992-1.173 1.487-2.051 1.487-2.637 0-.451-.293-.766-.878-.947-.586-.225-1.578-.405-2.975-.54v-.677h13.182v.676c-1.938.18-3.628.541-5.07 1.082-1.397.496-2.501 1.262-3.312 2.299l-16.224 20.685 18.117 22.511c1.532 1.893 4.304 3.042 8.315 3.448V68H352.86v-.676c.902-.135 1.555-.293 1.961-.473.405-.18.608-.406.608-.676 0-.406-.45-1.172-1.352-2.299L338.123 44.07v19.537c0 .901.113 1.577.338 2.028.226.406.676.744 1.352 1.014.676.225 1.803.45 3.381.676V68h-13.183v-.676zm37.174 0c1.758-.18 3.02-.473 3.786-.879.766-.45 1.397-1.284 1.893-2.501l19.672-47.861h2.028l20.753 47.793c.541 1.217 1.172 2.05 1.893 2.502.766.45 2.005.766 3.718.946V68h-13.182v-.676a46.65 46.65 0 001.893-.27c.901-.136 1.532-.316 1.892-.541.361-.226.541-.564.541-1.014 0-.406-.135-.947-.405-1.623l-8.112-19.063h-20.686l-7.774 19.334c-.181.405-.271.788-.271 1.149 0 .721.338 1.194 1.014 1.42.721.225 1.555.383 2.502.473.946.045 1.622.09 2.028.135V68h-13.183v-.676zm25.689-47.456l-9.194 22.917h18.996l-9.802-22.917zm23.545 5.985h1.06v-2.745h1.552c.379 0 .776.095.985.322.227.246.246.643.265.908l.037.739c.019.265.019.473.209.776h1.098c-.209-.341-.228-.606-.247-.89l-.037-.814c-.019-.416-.038-.795-.341-1.098a1.254 1.254 0 00-.587-.322v-.037c.379-.133.625-.36.757-.53a1.74 1.74 0 00.36-1.098c0-.7-.284-1.117-.492-1.306-.53-.492-1.363-.53-1.723-.53h-2.896v6.625zm1.06-5.83h1.533c.474 0 .909.075 1.174.36.132.15.265.378.265.738 0 .302-.095.624-.303.832-.303.322-.852.36-1.079.36h-1.59v-2.29zm-4.221 2.593c0-1.647.72-3.275 1.798-4.316 1.023-.984 2.461-1.514 3.786-1.514 1.325 0 2.764.53 3.786 1.514 1.079 1.041 1.798 2.67 1.798 4.297 0 1.609-.7 3.275-1.817 4.316a5.634 5.634 0 01-3.767 1.495 5.3 5.3 0 01-3.786-1.552 5.863 5.863 0 01-1.798-4.24zm-1.041-.057c0 1.61.606 3.483 2.082 4.865a6.69 6.69 0 004.543 1.798 6.565 6.565 0 004.543-1.817 6.587 6.587 0 002.082-4.808c0-1.912-.871-3.672-2.006-4.77-1.098-1.06-2.821-1.855-4.619-1.855a6.725 6.725 0 00-4.543 1.798c-1.23 1.174-2.082 2.896-2.082 4.79z" fill="#C5C5C5"/></svg>