<svg width="103" height="22" viewBox="0 0 103 22" fill="none" xmlns="http://www.w3.org/2000/svg">
<path d="M20.54 21.39C19.52 21.39 18.64 21.17 17.9 20.73C17.18 20.29 16.52 19.72 15.92 19.02C15.34 18.3 14.75 17.56 14.15 16.8C13.55 16 12.97 15.23 12.41 14.49C11.87 13.75 11.24 13.15 10.52 12.69C9.8 12.21 8.87 11.97 7.73 11.97H6.65V18.36C6.65 18.98 6.76 19.39 6.98 19.59C7.22 19.79 7.75 19.97 8.57 20.13L10.4 20.46V21H0.2V20.46L2.03 20.13C2.85 19.97 3.37 19.79 3.59 19.59C3.83 19.39 3.95 18.98 3.95 18.36V3.45C3.95 2.81 3.83 2.39 3.59 2.19C3.37 1.99 2.85 1.82 2.03 1.68L0.2 1.35V0.809999H8.6C11.3 0.809999 13.38 1.32 14.84 2.34C16.3 3.34 17.03 4.69 17.03 6.39C17.03 7.31 16.78 8.13 16.28 8.85C15.78 9.55 15.11 10.12 14.27 10.56C13.45 10.98 12.55 11.25 11.57 11.37V11.46C12.49 11.46 13.27 11.7 13.91 12.18C14.55 12.64 15.12 13.23 15.62 13.95C16.14 14.67 16.67 15.43 17.21 16.23C17.73 16.97 18.25 17.68 18.77 18.36C19.29 19.02 19.82 19.56 20.36 19.98C20.92 20.4 21.49 20.61 22.07 20.61V21.15C21.59 21.31 21.08 21.39 20.54 21.39ZM6.65 11.13H8.6C9.78 11.13 10.77 10.94 11.57 10.56C12.39 10.18 13.01 9.65 13.43 8.97C13.87 8.27 14.09 7.45 14.09 6.51C14.09 4.87 13.56 3.63 12.5 2.79C11.46 1.93 10.03 1.5 8.21 1.5H6.65V11.13ZM21.6324 21V20.46L23.4624 20.13C24.2824 19.97 24.8024 19.79 25.0224 19.59C25.2624 19.39 25.3824 18.98 25.3824 18.36V3.45C25.3824 2.81 25.2624 2.39 25.0224 2.19C24.8024 1.99 24.2824 1.82 23.4624 1.68L21.6324 1.35V0.809999H38.7024C38.6424 1.09 38.5924 1.37 38.5524 1.65C38.5324 1.93 38.5224 2.21 38.5224 2.49C38.5224 3.23 38.5824 3.92 38.7024 4.56C38.8424 5.18 38.9424 5.7 39.0024 6.12H38.4024C38.1024 5.24 37.7524 4.46 37.3524 3.78C36.9724 3.08 36.4624 2.53 35.8224 2.13C35.1824 1.73 34.3524 1.53 33.3324 1.53H28.1124V9.93H32.8824C33.9224 9.93 34.6124 9.75 34.9524 9.39C35.3124 9.03 35.5724 8.43 35.7324 7.59L36.0024 6.18H36.5424V14.52H36.0024L35.7324 13.11C35.5724 12.27 35.3124 11.67 34.9524 11.31C34.6124 10.95 33.9224 10.77 32.8824 10.77H28.1124V18.3C28.1124 18.78 28.1724 19.17 28.2924 19.47C28.4124 19.75 28.6424 19.95 28.9824 20.07C29.3224 20.19 29.8124 20.25 30.4524 20.25H33.2124C34.0324 20.25 34.7924 20.09 35.4924 19.77C36.1924 19.45 36.7924 19.05 37.2924 18.57C37.8124 18.07 38.1924 17.59 38.4324 17.13L39.2124 15.6H39.7824C39.5224 16.52 39.3324 17.46 39.2124 18.42C39.0924 19.36 39.0224 20.22 39.0024 21H21.6324ZM40.3695 21V20.46L42.1995 20.13C43.0195 19.97 43.5395 19.79 43.7595 19.59C43.9995 19.39 44.1195 18.98 44.1195 18.36V3.45C44.1195 2.81 43.9995 2.39 43.7595 2.19C43.5395 1.99 43.0195 1.82 42.1995 1.68L40.3695 1.35V0.809999H50.5695V1.35L48.7395 1.68C47.9195 1.82 47.3895 1.99 47.1495 2.19C46.9295 2.39 46.8195 2.81 46.8195 3.45V18.3C46.8195 19.04 46.9695 19.55 47.2695 19.83C47.5895 20.11 48.2295 20.25 49.1895 20.25H53.4195C54.2395 20.25 54.9995 20.09 55.6995 19.77C56.3995 19.45 56.9995 19.05 57.4995 18.57C58.0195 18.07 58.3995 17.59 58.6395 17.13L59.4195 15.6H59.9895C59.7295 16.52 59.5395 17.46 59.4195 18.42C59.2995 19.36 59.2295 20.22 59.2095 21H40.3695ZM58.6426 21V20.46L60.0526 20.22C60.7326 20.1 61.2526 19.91 61.6126 19.65C61.9726 19.37 62.2526 18.98 62.4526 18.48L68.5426 3.6L67.9126 1.95C68.3326 1.93 68.6826 1.81 68.9626 1.59C69.2426 1.35 69.4526 1.09 69.5926 0.809999C69.7326 0.509999 69.8026 0.259999 69.8026 0.0599996H70.0726L77.3926 17.79C77.7526 18.67 78.1226 19.27 78.5026 19.59C78.9026 19.89 79.4126 20.1 80.0326 20.22L81.2326 20.46V21H71.3626V20.46L72.9826 20.19C73.6226 20.09 74.0626 19.97 74.3026 19.83C74.5426 19.69 74.6626 19.5 74.6626 19.26C74.6626 19.1 74.6226 18.91 74.5426 18.69C74.4626 18.47 74.3726 18.22 74.2726 17.94L68.7826 4.08H69.4726L63.5026 18.54C63.4426 18.68 63.3926 18.82 63.3526 18.96C63.3126 19.08 63.2926 19.19 63.2926 19.29C63.2926 19.53 63.3826 19.71 63.5626 19.83C63.7626 19.95 64.0426 20.04 64.4026 20.1L66.3526 20.46V21H58.6426ZM65.3026 14.13L65.0926 13.17H73.8826V14.13H65.3026ZM79.8734 21V20.46L81.1634 20.28C81.8634 20.18 82.4934 19.99 83.0534 19.71C83.6134 19.43 84.1234 19.06 84.5834 18.6L90.1934 11.34L84.7334 3.6C84.3134 3.02 83.8734 2.57 83.4134 2.25C82.9734 1.91 82.3234 1.67 81.4634 1.53L80.5634 1.38V0.809999H90.7034V1.35L89.0834 1.59C88.2434 1.73 87.7034 1.94 87.4634 2.22C87.2434 2.48 87.3834 2.94 87.8834 3.6L92.0534 9.48L96.8834 3.36C97.1634 3 97.2734 2.67 97.2134 2.37C97.1534 2.05 96.8634 1.85 96.3434 1.77L94.3034 1.35V0.809999H102.673V1.35L101.383 1.53C100.683 1.63 100.063 1.83 99.5234 2.13C99.0034 2.43 98.4934 2.83 97.9934 3.33L92.5634 10.2L97.6934 17.19C98.4334 18.19 99.0934 18.92 99.6734 19.38C100.273 19.82 101.023 20.12 101.923 20.28L102.823 20.43V21H92.6834V20.46L94.3034 20.19C94.8434 20.09 95.2334 19.97 95.4734 19.83C95.7334 19.69 95.8434 19.49 95.8034 19.23C95.7634 18.95 95.5634 18.58 95.2034 18.12L90.7034 12.06L85.6634 18.57C85.3834 18.95 85.2834 19.27 85.3634 19.53C85.4434 19.77 85.7234 19.94 86.2034 20.04L88.2434 20.46V21H79.8734Z" fill="#BC987E"/>
</svg>
