<svg width="30" height="24" viewBox="0 0 30 24" fill="none" xmlns="http://www.w3.org/2000/svg">
<mask id="path-1-inside-1_538_522" fill="white">
<path d="M21 10C21 15.5228 16.299 20 10.5 20C4.70101 20 0 15.5228 0 10C0 4.47715 4.70101 0 10.5 0C16.299 0 21 4.47715 21 10ZM2.23128 10C2.23128 14.3492 5.93331 17.875 10.5 17.875C15.0667 17.875 18.7687 14.3492 18.7687 10C18.7687 5.65077 15.0667 2.12502 10.5 2.12502C5.93331 2.12502 2.23128 5.65077 2.23128 10Z"/>
</mask>
<path d="M21 10C21 15.5228 16.299 20 10.5 20C4.70101 20 0 15.5228 0 10C0 4.47715 4.70101 0 10.5 0C16.299 0 21 4.47715 21 10ZM2.23128 10C2.23128 14.3492 5.93331 17.875 10.5 17.875C15.0667 17.875 18.7687 14.3492 18.7687 10C18.7687 5.65077 15.0667 2.12502 10.5 2.12502C5.93331 2.12502 2.23128 5.65077 2.23128 10Z" fill="#BC987E" stroke="#BC987E" stroke-width="2" mask="url(#path-1-inside-1_538_522)"/>
<line x1="17.5882" y1="15.1913" x2="28.5882" y2="23.1913" stroke="#BC987E" stroke-width="2"/>
</svg>
