<svg width="90" height="24" viewBox="0 0 90 24" fill="none" xmlns="http://www.w3.org/2000/svg">
<path d="M16.8714 3.89099C17.6845 3.8919 18.464 4.21531 19.0389 4.79024C19.6139 5.36518 19.9373 6.1447 19.9382 6.95778V20.0714C19.9373 20.8845 19.6139 21.664 19.0389 22.2389C18.464 22.8139 17.6845 23.1373 16.8714 23.1382H3.75777C2.94469 23.1373 2.16517 22.8139 1.59023 22.2389C1.0153 21.664 0.69189 20.8845 0.69098 20.0714V6.95778C0.69189 6.1447 1.0153 5.36518 1.59023 4.79024C2.16517 4.21531 2.94469 3.8919 3.75777 3.89099H16.8714ZM16.8714 3.20001H3.75777C2.76115 3.20001 1.80534 3.59592 1.10063 4.30064C0.39591 5.00535 0 5.96116 0 6.95778V20.0714C0 21.068 0.39591 22.0238 1.10063 22.7286C1.80534 23.4332 2.76115 23.8292 3.75777 23.8292H16.8714C17.868 23.8292 18.8238 23.4332 19.5286 22.7286C20.2332 22.0238 20.6292 21.068 20.6292 20.0714V6.95778C20.6292 5.96116 20.2332 5.00535 19.5286 4.30064C18.8238 3.59592 17.868 3.20001 16.8714 3.20001Z" fill="#AAAAAA"/>
<path d="M16.6313 8.86682C16.7343 8.70732 16.6635 8.57892 16.4735 8.57892H12.0397C11.9352 8.58464 11.8332 8.61342 11.7411 8.66319C11.6491 8.71297 11.5691 8.78251 11.5071 8.86682L6.54814 16.5401C6.49744 16.6286 6.47044 16.7287 6.46974 16.8307C6.46914 16.9328 6.49494 17.0332 6.54474 17.1223L8.71674 20.5616C8.81804 20.7223 8.98564 20.7229 9.08864 20.5616L16.6313 8.86682Z" fill="#AAAAAA"/>
<path d="M9.748 8.57599C9.938 8.57599 10.0094 8.7067 9.9063 8.86389L7.23679 13.0046C7.13439 13.1641 6.96679 13.1635 6.86539 13.0046L4.25527 8.86793C4.15393 8.70727 4.22648 8.57599 4.4165 8.57599H9.748Z" fill="#AAAAAA"/>
<path d="M51.7622 8.55939H49.6875V17.9901H51.7622V8.55939Z" fill="#AAAAAA"/>
<path d="M32.4486 8.55939L29.7768 13.9346L27.2616 8.55939H24.8662L28.5664 16.4527L25.8658 21.7623H28.2802L34.8814 8.55939H32.4486Z" fill="#AAAAAA"/>
<path d="M47.6684 3.46759H45.6128V17.9908H47.6684V3.46759Z" fill="#AAAAAA"/>
<path d="M39.5213 10.333C40.0767 10.337 40.6201 10.4961 41.09 10.7925C41.5599 11.0889 41.9375 11.5107 42.1804 12.0104H44.3109C44.0273 10.9592 43.4032 10.0318 42.5364 9.37309C41.6695 8.71439 40.6087 8.36167 39.5201 8.37008C36.804 8.37008 34.6533 10.5772 34.6533 13.2743C34.6533 15.9904 36.804 18.1785 39.5201 18.1785C41.8401 18.1785 43.7449 16.5939 44.3109 14.4248H42.1804C41.9501 14.9385 41.577 15.3752 41.1056 15.6829C40.6341 15.9906 40.0842 16.1563 39.5213 16.1603C37.9556 16.1603 36.6163 14.8399 36.6163 13.2743C36.6163 11.6344 37.9556 10.333 39.5213 10.333Z" fill="#AAAAAA"/>
<path d="M50.7252 4.80572C49.9709 4.80572 49.4238 5.37175 49.4238 6.08864C49.4238 6.82395 49.9709 7.44641 50.7252 7.44641C51.4605 7.44641 52.0265 6.82395 52.0265 6.08864C52.0274 5.91836 51.9942 5.74963 51.9289 5.59237C51.8636 5.43511 51.7675 5.29251 51.6462 5.17297C51.5249 5.05342 51.381 4.95935 51.2228 4.89628C51.0646 4.83321 50.8954 4.80241 50.7252 4.80572Z" fill="#AAAAAA"/>
<path d="M76.735 5.54181H74.6978V15.9347C74.6978 17.1796 75.6599 17.9904 76.8104 17.9904H79.7719V15.9531H77.2958C77.1473 15.9531 77.0056 15.8942 76.9003 15.7894C76.7955 15.6845 76.7367 15.5423 76.7367 15.394V10.5969H79.7736V8.55966H76.7367L76.735 5.54181Z" fill="#AAAAAA"/>
<path d="M58.2147 8.37091C56.8189 8.37091 55.612 8.8235 54.6498 9.78569C53.8047 10.7291 53.3402 11.9527 53.3462 13.2193C53.3462 14.577 53.8368 15.86 54.7039 16.7461C55.6281 17.6139 56.8546 18.1799 58.2124 18.1799C59.5702 18.1799 60.8152 17.6139 61.7584 16.6897C62.1735 16.2935 62.4378 15.841 62.7015 15.2939L60.2877 15.3498C59.7597 15.8968 59.0617 16.1795 58.2147 16.1795C57.3849 16.1795 56.6681 15.9158 56.1591 15.3688C55.8013 15.019 55.54 14.5826 55.4007 14.102H63.0436L63.0499 13.9385C63.0701 13.7335 63.0999 13.4519 63.0999 13.2158C63.0976 10.4272 60.9849 8.37091 58.2147 8.37091ZM55.4479 12.2001C55.851 11.0893 56.9064 10.3327 58.2147 10.3327C59.5068 10.3327 60.5428 11.0882 60.9568 12.2001H55.4479Z" fill="#AAAAAA"/>
<path d="M69.0589 8.37091C68.1877 8.37091 67.3631 8.61851 66.7389 9.2116V8.55978H64.7017V17.9905H66.7378V12.5582C66.7378 11.349 67.6429 10.2947 68.8314 10.2947C70.0763 10.2947 70.9815 11.3312 70.9815 12.5582V17.9905H73.0187V12.4051C73.0199 10.0684 71.3978 8.37091 69.0589 8.37091Z" fill="#AAAAAA"/>
<path d="M87.109 12.2407H84.1637C83.9513 12.235 83.7491 12.1465 83.6006 11.9941C83.452 11.8416 83.3691 11.6373 83.3691 11.4245C83.3691 11.2116 83.452 11.0073 83.6006 10.8548C83.7491 10.7024 83.9513 10.6139 84.1637 10.6083H89.4422V8.55548H84.1637C83.4002 8.55548 82.6678 8.85881 82.1282 9.39876C81.5881 9.93865 81.2847 10.671 81.2847 11.4345C81.2847 12.1981 81.5881 12.9305 82.1282 13.4703C82.6678 14.0103 83.4002 14.3136 84.1637 14.3136H87.109C87.2156 14.3114 87.3215 14.3308 87.42 14.3705C87.519 14.4102 87.6088 14.4696 87.6843 14.5449C87.7591 14.6201 87.8184 14.7099 87.8582 14.8087C87.8979 14.9075 87.9175 15.0133 87.9152 15.1198C87.9146 15.3353 87.8305 15.5421 87.6797 15.6963C87.5294 15.8505 87.3244 15.94 87.109 15.9455H81.6589V17.9988H87.109C87.8726 17.9988 88.605 17.6955 89.1451 17.1556C89.6847 16.6157 89.9881 15.8834 89.9881 15.1198C89.9881 14.3562 89.6847 13.6239 89.1451 13.084C88.605 12.544 87.8726 12.2407 87.109 12.2407Z" fill="#AAAAAA"/>
</svg>
